<!-- Generated by IcoMoon.io -->
<svg version="1.1" xmlns="http://www.w3.org/2000/svg" width="27" height="32" viewBox="0 0 27 32">
<title>user-off</title>
<path fill="#444" d="M1.143 0v32"></path>
<path fill="#444" d="M2.286 0v32"></path>
<path fill="#444" d="M3.429 0v32"></path>
<path fill="#444" d="M4.571 0v32"></path>
<path fill="#444" d="M5.714 0v32"></path>
<path fill="#444" d="M6.857 0v32"></path>
<path fill="#444" d="M8 0v32"></path>
<path fill="#444" d="M9.143 0v32"></path>
<path fill="#444" d="M10.286 0v32"></path>
<path fill="#444" d="M11.429 0v32"></path>
<path fill="#444" d="M12.571 0v32"></path>
<path fill="#444" d="M13.714 0v32"></path>
<path fill="#444" d="M14.857 0v32"></path>
<path fill="#444" d="M16 0v32"></path>
<path fill="#444" d="M17.143 0v32"></path>
<path fill="#444" d="M18.286 0v32"></path>
<path fill="#444" d="M19.429 0v32"></path>
<path fill="#444" d="M20.571 0v32"></path>
<path fill="#444" d="M21.714 0v32"></path>
<path fill="#444" d="M22.857 0v32"></path>
<path fill="#444" d="M24 0v32"></path>
<path fill="#444" d="M25.143 0v32"></path>
<path fill="#444" d="M26.286 0v32"></path>
<path fill="#444" d="M27.429 0v32"></path>
<path fill="#444" d="M28.571 0v32"></path>
<path fill="#444" d="M29.714 0v32"></path>
<path fill="#444" d="M30.857 0v32"></path>
<path fill="#444" d="M0 1.143h32"></path>
<path fill="#444" d="M0 2.286h32"></path>
<path fill="#444" d="M0 3.429h32"></path>
<path fill="#444" d="M0 4.571h32"></path>
<path fill="#444" d="M0 5.714h32"></path>
<path fill="#444" d="M0 6.857h32"></path>
<path fill="#444" d="M0 8h32"></path>
<path fill="#444" d="M0 9.143h32"></path>
<path fill="#444" d="M0 10.286h32"></path>
<path fill="#444" d="M0 11.429h32"></path>
<path fill="#444" d="M0 12.571h32"></path>
<path fill="#444" d="M0 13.714h32"></path>
<path fill="#444" d="M0 14.857h32"></path>
<path fill="#444" d="M0 16h32"></path>
<path fill="#444" d="M0 17.143h32"></path>
<path fill="#444" d="M0 18.286h32"></path>
<path fill="#444" d="M0 19.429h32"></path>
<path fill="#444" d="M0 20.571h32"></path>
<path fill="#444" d="M0 21.714h32"></path>
<path fill="#444" d="M0 22.857h32"></path>
<path fill="#444" d="M0 24h32"></path>
<path fill="#444" d="M0 25.143h32"></path>
<path fill="#444" d="M0 26.286h32"></path>
<path fill="#444" d="M0 27.429h32"></path>
<path fill="#444" d="M0 28.571h32"></path>
<path fill="#444" d="M0 29.714h32"></path>
<path fill="#444" d="M0 30.857h32"></path>
<path fill="#444" d="M13.77 4.571c3.164 0 5.729 2.565 5.729 5.729v0c0 2.793-2.005 5.128-4.655 5.629l-6.703-6.703c0.501-2.65 2.836-4.655 5.629-4.655v0zM14.171 18.895l11.058 11.058-1.819 1.833-4.297-4.297h-16.801v-2.865c0-2.636 3.581-4.856 8.408-5.529l-10.155-10.155 1.819-1.819 11.788 11.774zM25.229 24.624v1.69l-6.961-6.961c4.096 0.874 6.961 2.908 6.961 5.271z"></path>
</svg>
