<!-- Generated by IcoMoon.io -->
<svg version="1.1" xmlns="http://www.w3.org/2000/svg" width="32" height="32" viewBox="0 0 32 32">
<title>user-check</title>
<path fill="#444" d="M1.143 0v32"></path>
<path fill="#444" d="M2.286 0v32"></path>
<path fill="#444" d="M3.429 0v32"></path>
<path fill="#444" d="M4.571 0v32"></path>
<path fill="#444" d="M5.714 0v32"></path>
<path fill="#444" d="M6.857 0v32"></path>
<path fill="#444" d="M8 0v32"></path>
<path fill="#444" d="M9.143 0v32"></path>
<path fill="#444" d="M10.286 0v32"></path>
<path fill="#444" d="M11.429 0v32"></path>
<path fill="#444" d="M12.571 0v32"></path>
<path fill="#444" d="M13.714 0v32"></path>
<path fill="#444" d="M14.857 0v32"></path>
<path fill="#444" d="M16 0v32"></path>
<path fill="#444" d="M17.143 0v32"></path>
<path fill="#444" d="M18.286 0v32"></path>
<path fill="#444" d="M19.429 0v32"></path>
<path fill="#444" d="M20.571 0v32"></path>
<path fill="#444" d="M21.714 0v32"></path>
<path fill="#444" d="M22.857 0v32"></path>
<path fill="#444" d="M24 0v32"></path>
<path fill="#444" d="M25.143 0v32"></path>
<path fill="#444" d="M26.286 0v32"></path>
<path fill="#444" d="M27.429 0v32"></path>
<path fill="#444" d="M28.571 0v32"></path>
<path fill="#444" d="M29.714 0v32"></path>
<path fill="#444" d="M30.857 0v32"></path>
<path fill="#444" d="M0 1.143h32"></path>
<path fill="#444" d="M0 2.286h32"></path>
<path fill="#444" d="M0 3.429h32"></path>
<path fill="#444" d="M0 4.571h32"></path>
<path fill="#444" d="M0 5.714h32"></path>
<path fill="#444" d="M0 6.857h32"></path>
<path fill="#444" d="M0 8h32"></path>
<path fill="#444" d="M0 9.143h32"></path>
<path fill="#444" d="M0 10.286h32"></path>
<path fill="#444" d="M0 11.429h32"></path>
<path fill="#444" d="M0 12.571h32"></path>
<path fill="#444" d="M0 13.714h32"></path>
<path fill="#444" d="M0 14.857h32"></path>
<path fill="#444" d="M0 16h32"></path>
<path fill="#444" d="M0 17.143h32"></path>
<path fill="#444" d="M0 18.286h32"></path>
<path fill="#444" d="M0 19.429h32"></path>
<path fill="#444" d="M0 20.571h32"></path>
<path fill="#444" d="M0 21.714h32"></path>
<path fill="#444" d="M0 22.857h32"></path>
<path fill="#444" d="M0 24h32"></path>
<path fill="#444" d="M0 25.143h32"></path>
<path fill="#444" d="M0 26.286h32"></path>
<path fill="#444" d="M0 27.429h32"></path>
<path fill="#444" d="M0 28.571h32"></path>
<path fill="#444" d="M0 29.714h32"></path>
<path fill="#444" d="M0 30.857h32"></path>
<path fill="#444" d="M28.214 16.714l2 2.014-9.329 9.414-4.957-5 2-2.014 2.957 2.971 7.329-7.386zM12.357 23.143l4.286 4.286h-14.286v-2.857c0-3.157 5.114-5.714 11.429-5.714l2.7 0.157-4.129 4.129zM13.786 4.571c3.156 0 5.714 2.558 5.714 5.714s-2.558 5.714-5.714 5.714c-3.156 0-5.714-2.558-5.714-5.714s2.558-5.714 5.714-5.714z"></path>
</svg>
