<svg xmlns="http://www.w3.org/2000/svg" width="17" height="17" viewBox="0 0 17 17">
  <path fill="#F50057" d="M13.9 13.1c0 .2 0 .3-.2.4l-.4.2c-.1 0-.2 0-.3-.2l-1.4-1.4a5 5 0 0 1-2.2 1.4v2.6l-.2.4-.4.1-.4-.1a.5.5 0 0 1-.1-.4v-2.5H8a5.1 5.1 0 0 1-1.7-.5l-.7-.6L11.2 7l-.8-.7L5 11.8a3.4 3.4 0 0 1-.8-1.5 7.2 7.2 0 0 1-.3-1V9l-2.4.2c-.1 0-.3 0-.4-.2a.6.6 0 0 1-.1-.3l.1-.4.4-.2L4 7.9a5 5 0 0 1 1.3-2L4 4.5a.5.5 0 0 1-.2-.4c0-.1 0-.3.2-.4l.4-.1.4.1L6 5.1l2-1.8V1.2c0-.2 0-.3.2-.4l.4-.2c.1 0 .3 0 .4.2l.1.4v2l5.2 5.2h2.1c.2 0 .3 0 .4.2l.2.4-.2.4-.4.1h-2.1l-1.8 1.8 1.3 1.4.2.4zM15.3 5c0 .7-.2 1.4-.8 2l-4-4c.6-.6 1.3-.9 2-.9.8 0 1.4.3 2 .9.5.5.8 1.2.8 2z"/>
</svg>
